<svg width="16" height="16" viewBox="0 0 16 16" fill="none" xmlns="http://www.w3.org/2000/svg">
<rect width="16" height="16" fill="url(#paint0_linear_324_60)" fill-opacity="0.9"/>
<path fill-rule="evenodd" clip-rule="evenodd" d="M12.2665 9.59995C12.2665 9.89435 12.0276 10.1333 11.7332 10.1333H4.2665C3.9721 10.1333 3.73317 9.89435 3.73317 9.59995V6.39995C3.73317 6.10555 3.9721 5.86662 4.2665 5.86662H11.7332C12.0276 5.86662 12.2665 6.10555 12.2665 6.39995V9.59995ZM8.53317 11.2H12.2665C12.8558 11.2 13.3332 10.7226 13.3332 10.1333V5.86662C13.3332 5.27729 12.8558 4.79995 12.2665 4.79995H3.73317C3.14384 4.79995 2.6665 5.27729 2.6665 5.86662V10.1333C2.6665 10.7226 3.14384 11.2 3.73317 11.2H7.4665H8.53317ZM10.1332 7.46662H11.1998V8.53329H10.1332V7.46662ZM8.53317 8.53329C8.23877 8.53329 7.99984 8.29435 7.99984 7.99995C7.99984 7.70555 8.23877 7.46662 8.53317 7.46662C8.82757 7.46662 9.0665 7.70555 9.0665 7.99995C9.0665 8.29435 8.82757 8.53329 8.53317 8.53329ZM6.39984 8.53329H6.93317V7.46662H6.39984V6.93329H5.33317V7.46662H4.79984V8.53329H5.33317V9.06662H6.39984V8.53329Z" fill="white"/>
<defs>
<linearGradient id="paint0_linear_324_60" x1="0" y1="8.88889" x2="16" y2="8.88889" gradientUnits="userSpaceOnUse">
<stop stop-color="#291ACB"/>
<stop offset="1" stop-color="#8850FF"/>
</linearGradient>
</defs>
</svg>
